<?xml version="1.0" encoding="UTF-8" standalone="no"?>
<!DOCTYPE svg PUBLIC "-//W3C//DTD SVG 1.1//EN" "http://www.w3.org/Graphics/SVG/1.1/DTD/svg11.dtd">
<svg width="100%" height="100%" viewBox="0 0 16 16" version="1.1" xmlns="http://www.w3.org/2000/svg" xmlns:xlink="http://www.w3.org/1999/xlink" xml:space="preserve" xmlns:serif="http://www.serif.com/" style="fill-rule:evenodd;clip-rule:evenodd;stroke-linejoin:round;stroke-miterlimit:2;">
    <path d="M4.73,2C4.374,1.379 3.711,0.995 2.995,0.995C1.898,0.995 0.995,1.898 0.995,2.995C0.995,3.711 1.379,4.374 2,4.73L2,11.271C1.379,11.627 0.995,12.29 0.995,13.006C0.995,14.103 1.898,15.006 2.995,15.006C3.711,15.006 4.374,14.622 4.73,14.001L4.73,12.001C4.555,11.698 4.303,11.446 4,11.271L4,5.437L7.564,9.001L8.663,8.348L9,7.565L5.436,4.001L11.27,4.001C11.445,4.304 11.697,4.556 12,4.731L14,4.731C14.62,4.375 15.004,3.712 15.004,2.997C15.004,1.899 14.101,0.997 13.004,0.997C12.289,0.997 11.626,1.38 11.27,2L4.73,2ZM11,8L11,11L8,11L8,13L11,13L11,16L13,16L13,13L16,13L16,11L13,11L13,8L11,8Z" style="fill:rgb(252,127,127);fill-rule:nonzero;"/>
    <path d="M13,1C11.905,1.003 11.005,1.905 11.005,3C11.005,3.649 11.32,4.258 11.85,4.633C11.657,5.518 11.296,5.973 10.863,6.275C10.219,6.726 9.15,6.881 7.9,7.005C6.65,7.129 5.219,7.226 3.988,8.088C3.096,8.713 2.456,9.74 2.17,11.184C1.459,11.509 1,12.222 1,13.004C1,14.101 1.903,15.004 3,15.004C4.097,15.004 5,14.101 5,13.004C5,12.353 4.683,11.741 4.15,11.367C4.343,10.482 4.703,10.03 5.137,9.727C5.781,9.276 6.85,9.121 8.1,8.997C9.35,8.873 10.781,8.776 12.012,7.914C12.904,7.289 13.544,6.26 13.83,4.816C14.537,4.49 14.992,3.779 14.992,3C14.992,1.906 14.094,1.004 13,1Z" style="fill:rgb(252,127,127);fill-rule:nonzero;"/>
</svg>
